HIERARCHY
ROOT Hips
{
	OFFSET 0.000000 0.000000 0.000000
	CHANNELS 6 Xposition Yposition Zposition Zrotation Yrotation Xrotation 
	JOINT Spine1
	{
		OFFSET -0.013727 5.003762 -0.053727
		CHANNELS 3 Zrotation Yrotation Xrotation
		JOINT Spine2
		{
			OFFSET -0.000000 7.125302 -0.029825
			CHANNELS 3 Zrotation Yrotation Xrotation
			JOINT Chest
			{
				OFFSET -0.000000 7.550064 -0.815971
				CHANNELS 3 Zrotation Yrotation Xrotation
				JOINT Neck1
				{
					OFFSET -0.181677 26.311296 -0.553348
					CHANNELS 3 Zrotation Yrotation Xrotation
					JOINT Neck2
					{
						OFFSET -0.000003 7.709399 2.302586
						CHANNELS 3 Zrotation Yrotation Xrotation
						JOINT Head
						{
							OFFSET -0.000005 6.128914 1.953708
							CHANNELS 3 Zrotation Yrotation Xrotation
							JOINT HeadEnd
							{
								OFFSET 0.003598 16.065401 -1.835379
								CHANNELS 3 Zrotation Yrotation Xrotation
								End Site
								{
									OFFSET 0.000000 0.000000 0.000000
								}
							}
							JOINT Jaw
							{
								OFFSET 0.002637 0.475592 3.094941
								CHANNELS 3 Zrotation Yrotation Xrotation
								End Site
								{
									OFFSET 0.000000 0.000000 0.000000
								}
							}
							JOINT LeftEye
							{
								OFFSET 3.206381 5.380207 7.586884
								CHANNELS 3 Zrotation Yrotation Xrotation
								End Site
								{
									OFFSET 0.000000 0.000000 0.000000
								}
							}
							JOINT RightEye
							{
								OFFSET -3.222440 5.361866 7.558233
								CHANNELS 3 Zrotation Yrotation Xrotation
								End Site
								{
									OFFSET 0.000000 0.000000 0.000000
								}
							}
						}
					}
				}
				JOINT LeftShoulder
				{
					OFFSET 1.621652 23.237164 5.113413
					CHANNELS 3 Zrotation Yrotation Xrotation
					JOINT LeftArm
					{
						OFFSET 14.919845 0.000002 -5.502327
						CHANNELS 3 Zrotation Yrotation Xrotation
						JOINT LeftForeArm
						{
							OFFSET 28.739309 0.000003 -0.002588
							CHANNELS 3 Zrotation Yrotation Xrotation
							JOINT LeftHand
							{
								OFFSET 27.093979 -0.000003 0.002608
								CHANNELS 3 Zrotation Yrotation Xrotation
								JOINT LeftHandThumb1
								{
									OFFSET 2.276480 -1.392045 3.191413
									CHANNELS 3 Zrotation Yrotation Xrotation
									JOINT LeftHandThumb2
									{
										OFFSET 4.012841 -1.828125 1.641655
										CHANNELS 3 Zrotation Yrotation Xrotation
										JOINT LeftHandThumb3
										{
											OFFSET 2.798517 0.000001 -0.000003
											CHANNELS 3 Zrotation Yrotation Xrotation
											JOINT LeftHandThumbEnd
											{
												OFFSET 3.180791 -0.000002 0.000003
												CHANNELS 3 Zrotation Yrotation Xrotation
												End Site
												{
													OFFSET 0.000000 0.000000 0.000000
												}
											}
										}
									}
								}
								JOINT LeftHandIndex1
								{
									OFFSET 3.247554 -0.531997 2.296170
									CHANNELS 3 Zrotation Yrotation Xrotation
									JOINT LeftHandIndex2
									{
										OFFSET 6.364580 0.012062 0.178600
										CHANNELS 3 Zrotation Yrotation Xrotation
										JOINT LeftHandIndex3
										{
											OFFSET 3.662366 0.000000 0.000000
											CHANNELS 3 Zrotation Yrotation Xrotation
											JOINT LeftHandIndex4
											{
												OFFSET 2.329242 0.000002 0.000003
												CHANNELS 3 Zrotation Yrotation Xrotation
												JOINT LeftHandIndexEnd
												{
													OFFSET 2.759619 -0.180539 -0.113024
													CHANNELS 3 Zrotation Yrotation Xrotation
													End Site
													{
														OFFSET 0.000000 0.000000 0.000000
													}
												}
											}
										}
									}
								}
								JOINT LeftHandMiddle1
								{
									OFFSET 3.163499 0.240982 1.000333
									CHANNELS 3 Zrotation Yrotation Xrotation
									JOINT LeftHandMiddle2
									{
										OFFSET 6.190777 -0.259277 -1.002549
										CHANNELS 3 Zrotation Yrotation Xrotation
										JOINT LeftHandMiddle3
										{
											OFFSET 4.356523 -0.000006 0.000001
											CHANNELS 3 Zrotation Yrotation Xrotation
											JOINT LeftHandMiddle4
											{
												OFFSET 2.996875 -0.000007 0.000000
												CHANNELS 3 Zrotation Yrotation Xrotation
												JOINT LeftHandMiddleEnd
												{
													OFFSET 2.304294 -0.294571 -0.031740
													CHANNELS 3 Zrotation Yrotation Xrotation
													End Site
													{
														OFFSET 0.000000 0.000000 0.000000
													}
												}
											}
										}
									}
								}
								JOINT LeftHandRing1
								{
									OFFSET 2.882643 -0.053650 -0.322543
									CHANNELS 3 Zrotation Yrotation Xrotation
									JOINT LeftHandRing2
									{
										OFFSET 5.854542 -0.486203 -1.373841
										CHANNELS 3 Zrotation Yrotation Xrotation
										JOINT LeftHandRing3
										{
											OFFSET 4.350580 -0.000001 0.000003
											CHANNELS 3 Zrotation Yrotation Xrotation
											JOINT LeftHandRing4
											{
												OFFSET 2.651324 0.000007 0.000003
												CHANNELS 3 Zrotation Yrotation Xrotation
												JOINT LeftHandRingEnd
												{
													OFFSET 1.936111 0.077686 -0.000069
													CHANNELS 3 Zrotation Yrotation Xrotation
													End Site
													{
														OFFSET 0.000000 0.000000 0.000000
													}
												}
											}
										}
									}
								}
								JOINT LeftHandPinky1
								{
									OFFSET 2.865500 -0.310003 -1.600378
									CHANNELS 3 Zrotation Yrotation Xrotation
									JOINT LeftHandPinky2
									{
										OFFSET 5.087852 -1.331142 -1.771231
										CHANNELS 3 Zrotation Yrotation Xrotation
										JOINT LeftHandPinky3
										{
											OFFSET 3.070975 0.000003 0.000000
											CHANNELS 3 Zrotation Yrotation Xrotation
											JOINT LeftHandPinky4
											{
												OFFSET 1.549667 0.000000 0.000001
												CHANNELS 3 Zrotation Yrotation Xrotation
												JOINT LeftHandPinkyEnd
												{
													OFFSET 1.944895 -0.157801 0.057219
													CHANNELS 3 Zrotation Yrotation Xrotation
													End Site
													{
														OFFSET 0.000000 0.000000 0.000000
													}
												}
											}
										}
									}
								}
							}
						}
					}
				}
				JOINT RightShoulder
				{
					OFFSET -1.380118 23.180307 5.214158
					CHANNELS 3 Zrotation Yrotation Xrotation
					JOINT RightArm
					{
						OFFSET -15.037197 0.000011 -5.545604
						CHANNELS 3 Zrotation Yrotation Xrotation
						JOINT RightForeArm
						{
							OFFSET -28.736639 0.000003 -0.002597
							CHANNELS 3 Zrotation Yrotation Xrotation
							JOINT RightHand
							{
								OFFSET -27.133619 -0.000001 0.002613
								CHANNELS 3 Zrotation Yrotation Xrotation
								JOINT RightHandThumb1
								{
									OFFSET -2.274036 -1.383990 3.163127
									CHANNELS 3 Zrotation Yrotation Xrotation
									JOINT RightHandThumb2
									{
										OFFSET -4.011429 -1.827468 1.640914
										CHANNELS 3 Zrotation Yrotation Xrotation
										JOINT RightHandThumb3
										{
											OFFSET -2.794935 -0.000003 -0.000003
											CHANNELS 3 Zrotation Yrotation Xrotation
											JOINT RightHandThumbEnd
											{
												OFFSET -3.183855 0.000003 0.000000
												CHANNELS 3 Zrotation Yrotation Xrotation
												End Site
												{
													OFFSET 0.000000 0.000000 0.000000
												}
											}
										}
									}
								}
								JOINT RightHandIndex1
								{
									OFFSET -3.253269 -0.520060 2.282866
									CHANNELS 3 Zrotation Yrotation Xrotation
									JOINT RightHandIndex2
									{
										OFFSET -6.341918 0.012473 0.178265
										CHANNELS 3 Zrotation Yrotation Xrotation
										JOINT RightHandIndex3
										{
											OFFSET -3.654874 -0.000010 -0.000001
											CHANNELS 3 Zrotation Yrotation Xrotation
											JOINT RightHandIndex4
											{
												OFFSET -2.327587 0.000001 0.000000
												CHANNELS 3 Zrotation Yrotation Xrotation
												JOINT RightHandIndexEnd
												{
													OFFSET -2.761789 -0.180657 -0.113079
													CHANNELS 3 Zrotation Yrotation Xrotation
													End Site
													{
														OFFSET 0.000000 0.000000 0.000000
													}
												}
											}
										}
									}
								}
								JOINT RightHandMiddle1
								{
									OFFSET -3.168107 0.246593 1.001031
									CHANNELS 3 Zrotation Yrotation Xrotation
									JOINT RightHandMiddle2
									{
										OFFSET -6.180830 -0.258836 -1.000896
										CHANNELS 3 Zrotation Yrotation Xrotation
										JOINT RightHandMiddle3
										{
											OFFSET -4.348904 -0.000001 -0.000001
											CHANNELS 3 Zrotation Yrotation Xrotation
											JOINT RightHandMiddle4
											{
												OFFSET -3.000244 -0.000002 -0.000002
												CHANNELS 3 Zrotation Yrotation Xrotation
												JOINT RightHandMiddleEnd
												{
													OFFSET -2.302518 -0.294372 -0.031707
													CHANNELS 3 Zrotation Yrotation Xrotation
													End Site
													{
														OFFSET 0.000000 0.000000 0.000000
													}
												}
											}
										}
									}
								}
								JOINT RightHandRing1
								{
									OFFSET -2.885694 -0.067952 -0.308858
									CHANNELS 3 Zrotation Yrotation Xrotation
									JOINT RightHandRing2
									{
										OFFSET -5.854197 -0.486132 -1.373732
										CHANNELS 3 Zrotation Yrotation Xrotation
										JOINT RightHandRing3
										{
											OFFSET -4.338814 -0.000004 -0.000001
											CHANNELS 3 Zrotation Yrotation Xrotation
											JOINT RightHandRing4
											{
												OFFSET -2.654905 -0.000005 0.000003
												CHANNELS 3 Zrotation Yrotation Xrotation
												JOINT RightHandRingEnd
												{
													OFFSET -1.933570 0.077524 -0.000052
													CHANNELS 3 Zrotation Yrotation Xrotation
													End Site
													{
														OFFSET 0.000000 0.000000 0.000000
													}
												}
											}
										}
									}
								}
								JOINT RightHandPinky1
								{
									OFFSET -2.866430 -0.342798 -1.584145
									CHANNELS 3 Zrotation Yrotation Xrotation
									JOINT RightHandPinky2
									{
										OFFSET -5.091370 -1.332054 -1.772385
										CHANNELS 3 Zrotation Yrotation Xrotation
										JOINT RightHandPinky3
										{
											OFFSET -3.062666 -0.000007 0.000000
											CHANNELS 3 Zrotation Yrotation Xrotation
											JOINT RightHandPinky4
											{
												OFFSET -1.546527 0.000006 -0.000002
												CHANNELS 3 Zrotation Yrotation Xrotation
												JOINT RightHandPinkyEnd
												{
													OFFSET -1.945122 -0.157721 0.057211
													CHANNELS 3 Zrotation Yrotation Xrotation
													End Site
													{
														OFFSET 0.000000 0.000000 0.000000
													}
												}
											}
										}
									}
								}
							}
						}
					}
				}
			}
		}
	}
	JOINT LeftLeg
	{
		OFFSET 10.043214 -8.434527 2.595655
		CHANNELS 3 Zrotation Yrotation Xrotation
		JOINT LeftShin
		{
			OFFSET -0.000001 -43.221752 -0.802912
			CHANNELS 3 Zrotation Yrotation Xrotation
			JOINT LeftFoot
			{
				OFFSET 0.000002 -42.155094 -3.481523
				CHANNELS 3 Zrotation Yrotation Xrotation
				JOINT LeftToeBase
				{
					OFFSET 0.000000 -5.059475 13.231529
					CHANNELS 3 Zrotation Yrotation Xrotation
					JOINT LeftToeEnd
					{
						OFFSET -0.009607 -1.647617 6.513017
						CHANNELS 3 Zrotation Yrotation Xrotation
						End Site
						{
							OFFSET 0.000000 0.000000 0.000000
						}
					}
				}
			}
		}
	}
	JOINT RightLeg
	{
		OFFSET -10.047277 -8.295260 2.620317
		CHANNELS 3 Zrotation Yrotation Xrotation
		JOINT RightShin
		{
			OFFSET 0.000000 -43.362209 -0.805556
			CHANNELS 3 Zrotation Yrotation Xrotation
			JOINT RightFoot
			{
				OFFSET 0.000002 -42.117393 -3.478397
				CHANNELS 3 Zrotation Yrotation Xrotation
				JOINT RightToeBase
				{
					OFFSET -0.000001 -5.079609 13.284196
					CHANNELS 3 Zrotation Yrotation Xrotation
					JOINT RightToeEnd
					{
						OFFSET 0.009532 -1.634384 6.460591
						CHANNELS 3 Zrotation Yrotation Xrotation
						End Site
						{
							OFFSET 0.000000 0.000000 0.000000
						}
					}
				}
			}
		}
	}
}
MOTION
Frames: 4
Frame Time: 0.033333
15.916111 93.702850 9.147351 3.396225 -19.600479 -3.834171 1.422970 1.146240 0.349184 -0.107418 3.345477 -5.024837 -0.377662 2.246778 15.031028 -9.775391 11.285701 24.460722 0.898989 5.665288 -3.738300 -2.415711 5.648176 -15.063319 0.000077 -0.000022 0.000006 -0.040883 0.121209 0.065732 0.605767 -3.603387 -10.562653 -0.689534 3.824356 -10.554294 -2.786168 -0.089536 10.854609 -39.022102 -26.496027 -27.445421 178.737732 -50.053360 -179.409241 14.643629 -3.333014 -5.849447 -5.882101 9.861278 0.702589 -10.936861 -0.360574 7.156198 0.000000 8.774814 -0.000002 -16.785103 18.020281 5.898260 -1.844032 2.498505 -2.507275 -10.163589 4.678939 4.621104 -20.975992 -0.000004 0.000002 -21.226254 2.451692 -3.593995 0.000000 -0.000005 -0.000001 -1.362682 2.240795 -0.746323 -21.334892 0.584908 3.008320 -13.821197 -0.000002 0.000002 -23.887129 -0.249079 -0.839481 -60.614792 2.492549 -1.029962 -0.294024 1.679685 0.833255 -14.218189 0.093213 1.300578 -34.211998 -0.287563 0.967170 -20.033178 0.964537 1.212840 0.000000 0.000000 0.000000 -3.440385 0.788231 0.501655 -15.928164 -3.167307 2.999703 -6.338817 -0.000001 0.000002 -18.123413 3.648178 -4.905663 -0.000004 -0.000000 -0.000001 6.394423 18.881134 13.485859 38.209137 57.967510 -2.090725 178.934296 66.061180 179.551559 -13.243091 3.221454 -20.852402 2.243540 -5.255031 -3.180153 14.282878 -0.826593 6.952495 -0.000005 -12.690590 -0.000000 16.047871 -17.821421 3.160872 1.665663 -1.955920 -2.878298 4.727791 -4.170581 4.993919 11.020510 0.000003 -0.000001 12.109031 -3.735708 -2.866780 0.000001 -0.000001 -0.000000 1.291984 -1.928548 -1.498089 14.800111 0.567469 3.865604 14.242551 -1.341734 -6.660650 19.631935 0.143927 -0.648244 49.591072 -0.864386 -5.827889 0.353028 -1.511149 -0.031939 20.222769 3.684308 2.316630 18.787243 0.000005 0.000001 10.751610 -0.479868 1.397905 -0.000001 0.000000 0.000000 3.273804 0.305947 -0.580111 21.486790 11.830363 2.266132 8.162915 0.000003 0.000002 18.399052 -3.798979 -4.940566 0.000004 0.000001 -0.000001 11.508467 20.033251 -21.326500 -0.292946 -0.548405 23.624811 -15.134691 -5.514268 7.268596 1.644974 -1.970121 -0.930652 0.000000 0.000000 0.000002 -22.168972 -6.810636 6.531534 0.265327 1.019818 22.212605 18.626663 10.016851 -15.578355 -1.414404 0.937920 -2.807808 0.000000 0.000000 -0.000001 
16.253820 93.572052 9.578986 3.504414 -19.275255 -4.040058 1.354550 1.172191 0.307605 -0.097564 3.364742 -5.040917 -0.340161 2.310968 15.002028 -9.667281 11.223681 24.523102 0.872367 5.485341 -3.773389 -2.498518 5.531433 -15.045202 0.000077 -0.000023 0.000006 -0.036324 0.113542 0.065274 0.611178 -3.600926 -10.556539 -0.688365 3.807837 -10.552119 -2.769742 -0.093381 10.853954 -38.796398 -26.703856 -27.340155 178.803329 -50.144310 -179.445663 14.575983 -3.264296 -5.691101 -5.882102 9.861276 0.702590 -10.936858 -0.360575 7.156199 -0.000000 8.774812 -0.000001 -16.817820 18.043526 5.860247 -1.844031 2.498503 -2.507276 -10.163589 4.678937 4.621104 -20.975996 -0.000004 0.000004 -21.226254 2.451692 -3.593992 0.000000 -0.000007 -0.000000 -1.362681 2.240796 -0.746323 -21.334887 0.584908 3.008322 -13.821197 -0.000002 0.000004 -23.887129 -0.249078 -0.839479 -60.692711 2.504910 -1.035670 -0.294025 1.679687 0.833256 -14.218194 0.093214 1.300581 -34.212006 -0.287564 0.967174 -20.033178 0.964537 1.212843 -0.000000 0.000000 -0.000001 -3.440386 0.788232 0.501655 -15.928167 -3.167307 2.999704 -6.338817 -0.000001 0.000002 -18.123413 3.648175 -4.905660 -0.000004 -0.000001 -0.000002 6.564399 18.789894 13.577529 38.494164 57.762844 -1.915221 178.750290 65.897667 179.440994 -13.317987 3.232812 -20.863434 2.243541 -5.255033 -3.180158 14.282877 -0.826594 6.952497 -0.000003 -12.690590 0.000000 16.038546 -17.837296 3.176003 1.665664 -1.955919 -2.878295 4.727794 -4.170584 4.993918 11.020513 0.000001 -0.000002 12.109033 -3.735711 -2.866777 0.000001 -0.000001 -0.000000 1.291985 -1.928547 -1.498087 14.800113 0.567466 3.865601 14.242553 -1.341736 -6.660650 19.631939 0.143923 -0.648245 49.603733 -0.873149 -5.853650 0.353029 -1.511149 -0.031940 20.222771 3.684304 2.316627 18.787247 0.000003 -0.000000 10.751611 -0.479869 1.397903 -0.000001 0.000000 0.000000 3.273804 0.305947 -0.580111 21.486792 11.830363 2.266130 8.162916 0.000001 0.000001 18.399055 -3.798981 -4.940570 0.000004 0.000001 0.000000 11.187968 20.108147 -21.691849 -0.320971 -0.545829 25.034529 -14.894900 -6.173337 6.306661 1.641309 -1.962968 -0.897103 -0.000000 0.000000 0.000002 -22.594122 -6.629108 7.187263 0.259989 1.056410 21.932276 18.980917 9.695893 -15.375792 -1.418189 0.945779 -2.935323 -0.000000 -0.000001 -0.000001 
16.513466 93.432678 9.975544 3.593571 -18.993742 -4.205455 1.286568 1.195870 0.269509 -0.097540 3.438969 -5.045473 -0.343631 2.341048 14.974178 -9.603795 11.193593 24.563610 0.839362 5.340873 -3.788367 -2.564682 5.396946 -15.016235 0.000077 -0.000023 0.000006 -0.031145 0.100357 0.064918 0.617849 -3.603946 -10.561650 -0.687911 3.799118 -10.559588 -2.763705 -0.106835 10.828699 -38.377758 -26.930214 -27.360079 178.786377 -50.353771 -179.404861 14.567876 -3.232568 -5.628263 -5.882102 9.861280 0.702589 -10.936859 -0.360575 7.156199 -0.000002 8.774815 -0.000002 -16.861359 18.030926 5.833691 -1.844030 2.498502 -2.507276 -10.163589 4.678940 4.621103 -20.975998 -0.000001 0.000002 -21.226254 2.451693 -3.593995 -0.000000 -0.000006 0.000001 -1.362681 2.240798 -0.746323 -21.334894 0.584908 3.008321 -13.821195 -0.000002 0.000002 -23.887131 -0.249078 -0.839481 -60.739594 2.516679 -1.059779 -0.294025 1.679686 0.833255 -14.218195 0.093214 1.300580 -34.212002 -0.287564 0.967170 -20.033180 0.964536 1.212842 0.000000 -0.000001 0.000000 -3.440386 0.788233 0.501655 -15.928169 -3.167306 2.999704 -6.338818 -0.000002 0.000002 -18.123411 3.648178 -4.905663 -0.000005 -0.000001 -0.000002 6.677063 18.727667 13.664173 38.481987 57.696564 -2.081935 178.665878 65.767929 179.453247 -13.436448 3.262342 -21.075453 2.243540 -5.255033 -3.180156 14.282873 -0.826591 6.952496 -0.000005 -12.690590 0.000001 16.036882 -17.851143 3.194613 1.665664 -1.955918 -2.878295 4.727794 -4.170584 4.993920 11.020513 0.000003 0.000000 12.109033 -3.735709 -2.866779 0.000001 -0.000001 0.000001 1.291984 -1.928548 -1.498087 14.800114 0.567470 3.865602 14.242553 -1.341733 -6.660652 19.631939 0.143927 -0.648241 49.617413 -0.886920 -5.855137 0.353029 -1.511149 -0.031939 20.222767 3.684307 2.316629 18.787245 0.000006 0.000001 10.751611 -0.479867 1.397905 -0.000001 0.000000 0.000001 3.273803 0.305947 -0.580110 21.486792 11.830362 2.266131 8.162916 0.000001 0.000001 18.399050 -3.798979 -4.940567 0.000003 -0.000002 -0.000001 10.845999 20.162094 -22.138220 -0.330491 -0.547493 26.338223 -14.654926 -6.711999 5.497770 1.639053 -1.945181 -0.865854 0.000000 0.000000 0.000002 -22.976257 -6.556274 7.712646 0.266529 1.122039 21.822239 19.237514 9.498140 -15.250402 -1.419814 0.959870 -3.038325 -0.000000 -0.000000 -0.000001 
16.799232 93.291199 10.324710 3.655552 -18.753819 -4.339217 1.234259 1.241159 0.254272 -0.104311 3.463213 -5.062318 -0.382168 2.374831 14.986716 -9.608251 11.180901 24.566580 0.829125 5.255742 -3.811779 -2.620322 5.273665 -14.990589 0.000077 -0.000023 0.000006 -0.029045 0.096221 0.064563 0.624849 -3.614959 -10.582238 -0.687712 3.786823 -10.578343 -2.787416 -0.129354 10.780473 -37.891674 -27.125353 -27.496975 178.686234 -50.558422 -179.318665 14.539537 -3.280823 -5.625935 -5.882102 9.861279 0.702590 -10.936858 -0.360574 7.156197 -0.000001 8.774814 -0.000002 -16.814205 17.994286 5.866771 -1.844031 2.498501 -2.507277 -10.163590 4.678938 4.621103 -20.975994 -0.000003 0.000002 -21.226254 2.451691 -3.593994 0.000000 -0.000005 -0.000000 -1.362679 2.240796 -0.746323 -21.334887 0.584908 3.008320 -13.821197 -0.000002 0.000002 -23.887129 -0.249079 -0.839481 -60.738041 2.527110 -1.072510 -0.294024 1.679687 0.833256 -14.218190 0.093213 1.300578 -34.211998 -0.287566 0.967167 -20.033176 0.964533 1.212841 -0.000000 0.000000 0.000000 -3.440385 0.788232 0.501655 -15.928165 -3.167306 2.999703 -6.338819 -0.000002 0.000002 -18.123411 3.648176 -4.905662 -0.000004 -0.000000 -0.000003 6.748040 18.699081 13.699470 38.306259 57.722542 -2.416880 178.588516 65.736412 179.402634 -13.552919 3.295658 -21.265427 2.243542 -5.255035 -3.180158 14.282878 -0.826595 6.952495 -0.000004 -12.690590 0.000001 16.032454 -17.822212 3.190304 1.665666 -1.955920 -2.878299 4.727794 -4.170583 4.993919 11.020512 0.000002 0.000000 12.109033 -3.735709 -2.866779 0.000000 -0.000001 -0.000000 1.291985 -1.928547 -1.498089 14.800114 0.567466 3.865602 14.242553 -1.341735 -6.660653 19.631941 0.143924 -0.648246 49.645390 -0.874624 -5.846673 0.353030 -1.511149 -0.031941 20.222765 3.684306 2.316626 18.787247 0.000003 -0.000002 10.751611 -0.479868 1.397904 -0.000001 0.000000 -0.000001 3.273805 0.305947 -0.580110 21.486790 11.830360 2.266129 8.162917 0.000002 0.000000 18.399055 -3.798978 -4.940567 0.000004 0.000001 -0.000002 10.555537 20.218586 -22.618351 -0.343450 -0.541370 27.656267 -14.387873 -7.116572 4.772711 1.637521 -1.932279 -0.840010 0.000000 0.000000 0.000002 -23.340630 -6.497344 8.097428 0.269997 1.170793 21.848139 19.473045 9.359835 -15.092034 -1.425906 0.971380 -3.148569 0.000000 0.000000 -0.000001 
